# xmcd
#
# Track frame offsets: 
#        150
#        12593
#        25075
#        43922
#        61909
#        76332
#        94586
#        133546
#        156528
#        172156
#        190932
#        211755
#        229724
#
# Disc length: 3332 seconds
#
# Revision: 0
# Processed by: cddbd v1.5.2PL0 Copyright (c) Steve Scherf et al.
# Submitted via: ExactAudioCopyFreeDBPlugin 1.0
#
DISCID=ab0d020d
DTITLE=Citations - You Can't Outrun The Blues
DYEAR=2012
DGENRE=Blues
TTITLE0=Rollin' Down The Highway
TTITLE1=My Baby
TTITLE2=Sweet Senorita
TTITLE3=Mean Woman Blues
TTITLE4=In A Funk
TTITLE5=Tough Times
TTITLE6=What It Is
TTITLE7=Grape Stompin'
TTITLE8=Why Get Up
TTITLE9=One Way Out
TTITLE10=You can't Outrun The Blues
TTITLE11=Another Highway Song
TTITLE12=So Many Miles
EXTD=
EXTT0=
EXTT1=
EXTT2=
EXTT3=
EXTT4=
EXTT5=
EXTT6=
EXTT7=
EXTT8=
EXTT9=
EXTT10=
EXTT11=
EXTT12=
PLAYORDER=
